PathFileType  4	(X/Y/Z) C:\Users\antoi\Documents\MyRepositories\mobilecap\ResultsAnalysis
DataRate	CameraRate	NumFrames	NumMarkers	Units	OrigDataRate	OrigDataStartFrame	OrigNumFrames
100.0	100.0	6	51	mm	100.0	178	284
Frame#	Time	r_knee			r_shank_antsup			r_ankle			r_calc			r_5meta			r_toe			L_knee			L_shank_antsup			L_ankle			L_calc			L_5meta			L_toe			r_sh2			r_sh3			r_sh4			L_sh2			L_sh3			r_thigh1			r_thigh2			r_thigh3			r_thigh4			r_thigh5			L_thigh1			L_thigh2			L_thigh3			L_thigh4			r.ASIS			r.PSIS			L.ASIS			L.PSIS			C7			R_Shoulder			L_Shoulder			R_Sternum			L_Sternum			R_humerus			R_elbow_med			R_elbow_lat			R_forearm			R_wrist_radius			R_wrist_ulna			L_humerus			L_elbow_med			L_elbow_lat			L_forearm			L_wrist_radius			L_wrist_ulna			R_HJC			L_HJC			R_HJC_reg			L_HJC_reg			
		X1	Y1	Z1	X2	Y2	Z2	X3	Y3	Z3	X4	Y4	Z4	X5	Y5	Z5	X6	Y6	Z6	X7	Y7	Z7	X8	Y8	Z8	X9	Y9	Z9	X10	Y10	Z10	X11	Y11	Z11	X12	Y12	Z12	X13	Y13	Z13	X14	Y14	Z14	X15	Y15	Z15	X16	Y16	Z16	X17	Y17	Z17	X18	Y18	Z18	X19	Y19	Z19	X20	Y20	Z20	X21	Y21	Z21	X22	Y22	Z22	X23	Y23	Z23	X24	Y24	Z24	X25	Y25	Z25	X26	Y26	Z26	X27	Y27	Z27	X28	Y28	Z28	X29	Y29	Z29	X30	Y30	Z30	X31	Y31	Z31	X32	Y32	Z32	X33	Y33	Z33	X34	Y34	Z34	X35	Y35	Z35	X36	Y36	Z36	X37	Y37	Z37	X38	Y38	Z38	X39	Y39	Z39	X40	Y40	Z40	X41	Y41	Z41	X42	Y42	Z42	X43	Y43	Z43	X44	Y44	Z44	X45	Y45	Z45	X46	Y46	Z46	X47	Y47	Z47	X48	Y48	Z48	X49	Y49	Z49	X50	Y50	Z50	X51	Y51	Z51	

178	1.77000000	-58.04855	532.06348	-355.61877	-66.33860	392.47359	-349.51051	-307.18817	118.64507	-343.81559	-366.52061	87.42256	-409.13098	-196.60329	45.69640	-284.30461	-148.30029	64.29052	-331.42752	-95.19179	538.11382	-872.24912	-90.27540	345.51545	-862.92881	-293.27595	114.67120	-836.73551	-348.21335	77.43430	-763.56082	-185.96084	37.30083	-911.42134	-129.60003	63.96468	-864.39958	-126.97475	295.13557	-354.59957	-126.26727	425.42335	-319.36968	-188.74740	331.98993	-313.17084	-157.59769	385.55647	-903.82049	-215.01539	283.07915	-881.61451	-304.89286	675.79279	-358.33982	-196.85868	645.86352	-347.29443	-193.81015	577.75892	-340.17542	-336.32319	566.67222	-376.64630	-221.12926	534.20933	-364.81172	-323.21450	711.55425	-806.73868	-200.12600	665.94709	-842.50452	-369.75779	612.31606	-817.46275	-246.59075	569.94338	-866.07027	-360.70639	748.00291	-435.35752	-534.08922	829.95536	-522.63906	-374.30211	745.67536	-708.96039	-533.45405	834.97733	-614.39612	-171.90418	1177.96596	-590.02899	-96.45990	1101.71420	-437.23677	-118.85745	1126.43562	-750.04649	-98.54058	1025.88586	-571.04217	-102.03351	1023.89347	-619.45609	-35.34084	887.53170	-310.52667	-73.34466	735.44705	-279.23214	-48.30165	792.69733	-218.40672	128.54072	815.02729	-341.05162	192.48985	824.16786	-395.14642	211.04629	803.02816	-369.72317	-31.88971	887.56814	-846.30897	-91.82594	768.61181	-881.76436	-31.66978	812.78838	-925.38967	109.49034	829.97816	-774.19291	141.52616	836.63468	-712.10421	162.32124	821.39154	-735.16801	-465.45514	679.54370	-471.16813	-476.34850	683.31246	-668.30720	-455.97001	678.70024	-478.64836	-454.71764	688.58018	-659.18393	
179	1.78000000	-57.11135	528.24454	-357.93238	-66.91667	389.44514	-351.29932	-308.79909	116.68925	-343.91569	-368.08850	84.45919	-408.44627	-197.20008	45.22259	-284.01767	-149.23201	64.10283	-331.16893	-94.10236	538.26199	-872.86669	-89.88185	345.31109	-863.49473	-292.97860	114.90200	-836.77399	-347.97957	77.79438	-763.64728	-185.99631	37.42947	-911.73801	-129.56134	63.94881	-864.63267	-127.96998	292.45511	-355.68904	-127.01815	423.00817	-322.09952	-190.07674	330.18210	-315.34344	-157.26203	385.84028	-903.90897	-214.94379	283.68016	-881.80107	-305.01254	667.56060	-359.34151	-196.98245	639.03371	-348.58411	-193.18668	570.38685	-342.75615	-335.77709	558.51792	-378.67802	-220.13305	527.07556	-367.96252	-323.52820	709.23426	-803.69638	-200.37229	665.95890	-840.57509	-369.57369	610.55343	-818.78258	-245.76235	570.31905	-867.57124	-358.77711	738.56176	-435.45177	-532.58738	822.05345	-521.77140	-375.27444	736.40374	-709.49342	-532.77290	827.09154	-613.30252	-165.23240	1164.15891	-587.57914	-88.79763	1087.69025	-436.58859	-112.28344	1113.55770	-746.35494	-93.78503	1011.01408	-568.44127	-97.68974	1009.20509	-616.37012	-9.29822	881.61703	-314.59374	-34.05014	726.74386	-281.27690	-11.03003	785.90654	-221.64437	159.54315	819.92110	-350.37154	220.14864	832.60358	-407.25455	241.55915	813.24837	-381.71920	-13.62641	881.44641	-841.62843	-66.55880	759.31287	-878.01375	-8.04299	806.85046	-920.61150	130.02839	830.85001	-767.52848	160.26743	838.77952	-705.33828	182.68240	825.13077	-728.19808	-464.66124	671.07466	-470.66161	-477.37221	674.88323	-667.68665	-455.24510	669.84577	-477.96441	-455.61913	679.80657	-658.88844	
180	1.79000000	-55.85368	525.74618	-361.09734	-66.68541	387.46144	-354.12445	-309.53575	115.73391	-344.18599	-368.94625	82.92392	-408.17442	-197.44878	45.06510	-283.95984	-149.70088	64.02827	-331.15668	-93.10176	538.06944	-873.15582	-89.61577	345.21423	-864.22509	-292.95645	114.98182	-836.76514	-347.87395	77.98654	-763.76610	-186.05583	37.29049	-911.86239	-129.70002	63.89404	-864.79146	-128.26883	290.58954	-357.63691	-126.71633	421.51637	-325.05498	-189.97218	328.93757	-317.43885	-157.12301	386.15566	-904.05538	-215.10755	284.20726	-881.67772	-304.80134	662.87196	-360.75260	-196.30001	635.26566	-351.56697	-191.89090	566.32521	-345.24988	-334.88511	553.18286	-379.34754	-218.83812	522.79458	-369.90493	-323.10165	706.75901	-801.54701	-200.39367	665.34288	-839.35295	-369.00109	608.72299	-819.53023	-244.72620	569.58459	-868.27167	-357.01657	729.96094	-435.29267	-531.00320	814.95546	-520.61331	-376.12720	728.48132	-709.77831	-532.01319	820.21224	-611.72890	-159.20266	1151.90269	-584.89504	-81.93321	1075.44069	-435.95922	-106.16540	1102.50547	-742.79189	-89.28092	998.01674	-566.14719	-93.45825	996.38965	-613.69228	13.93715	878.22788	-319.66918	1.96872	721.79581	-285.39526	22.86385	782.22627	-226.35272	187.15547	827.25691	-359.86067	244.31106	843.47235	-419.03509	268.46317	825.84212	-393.51437	3.49065	877.86153	-837.12796	-42.44161	752.71828	-873.46323	14.14036	803.33171	-915.61874	149.44639	833.65984	-761.16116	178.67920	842.92159	-698.90006	202.00390	830.38061	-721.44767	-463.83640	663.39278	-470.07036	-478.23606	667.64171	-666.97595	-454.45681	661.79268	-477.18227	-456.46998	672.25528	-658.46855	
181	1.80000000	-54.06151	525.06447	-365.15390	-65.34581	387.05151	-357.62843	-309.11619	116.20704	-344.91422	-368.71383	83.16188	-408.66414	-197.30338	45.30894	-284.10868	-149.55054	64.14018	-331.47969	-92.21976	537.41578	-873.48738	-89.46916	345.05622	-865.02109	-293.10637	114.90401	-836.57183	-347.86489	77.91758	-763.60700	-186.15316	37.14492	-911.93643	-129.94140	63.84114	-864.85625	-127.45013	290.24577	-360.27780	-125.03862	421.51397	-328.42180	-188.61824	329.35112	-319.78156	-157.14952	386.44550	-904.22610	-215.45036	284.40294	-881.19459	-304.13914	660.92719	-363.46535	-195.22394	634.40004	-355.61537	-190.02918	565.42038	-347.63881	-333.46089	550.49119	-379.26246	-217.08266	521.34941	-370.89628	-323.02868	703.68147	-800.92491	-200.46221	663.54881	-839.18417	-368.53171	605.75182	-819.37227	-243.93329	567.22610	-868.24654	-355.32174	723.18349	-434.31731	-529.69071	809.17431	-518.79632	-375.63307	722.39223	-708.46530	-530.90980	814.62196	-609.70058	-153.70057	1141.20355	-582.18244	-75.73733	1065.17305	-435.11701	-100.59463	1093.05969	-739.07554	-85.13373	986.82309	-564.16708	-89.45271	985.37127	-611.36036	34.27507	876.83173	-325.38896	34.33690	719.67620	-291.16706	53.21377	780.84977	-232.34450	211.18523	836.49664	-369.53746	265.63108	856.95734	-429.34562	291.49342	840.42165	-404.93600	19.25904	876.46156	-833.07084	-19.48962	748.39812	-868.56022	34.81714	802.04196	-910.49096	167.49616	838.27185	-755.01920	196.19058	848.85904	-692.68464	220.20579	837.13857	-714.68158	-462.71192	657.18333	-468.70668	-477.87319	661.89630	-665.54585	-453.38724	655.55948	-476.04191	-455.81328	666.41217	-657.13550	
182	1.81000000	-51.68772	525.44240	-369.60613	-63.24180	387.56763	-361.38266	-308.15881	117.63084	-346.10503	-367.77384	84.48188	-409.63864	-196.98547	45.89427	-284.48328	-149.04472	64.31710	-331.96642	-91.45459	536.56017	-874.06419	-89.37560	344.79649	-865.55427	-293.18563	114.81385	-836.11991	-347.76573	77.75528	-763.16560	-186.26397	37.13717	-911.98013	-130.14197	63.83422	-864.90222	-125.59403	291.00608	-363.21852	-122.52507	422.48393	-332.34921	-186.79799	331.37345	-322.52324	-157.24391	386.51457	-904.16913	-215.73650	284.29234	-880.55508	-303.05945	660.35863	-367.05878	-193.90212	634.94616	-359.92974	-187.96680	566.41722	-349.67501	-331.72547	549.62804	-379.19719	-215.04388	521.44238	-371.50384	-323.60119	700.40257	-801.33528	-200.73362	661.10378	-839.80960	-368.32127	602.03929	-818.81368	-243.49596	564.10074	-867.88581	-353.56527	718.43573	-433.25844	-528.35977	804.93272	-516.43928	-373.99059	717.93846	-706.10600	-529.35079	810.45387	-607.54219	-148.64148	1132.13487	-579.47875	-70.08259	1056.90067	-434.07212	-95.50602	1085.23004	-735.25437	-81.40164	977.24030	-562.14175	-85.69410	976.06878	-609.04978	51.88709	877.04651	-331.45619	62.83745	719.72766	-298.00647	79.95381	781.20987	-239.41783	231.57676	847.29648	-379.09612	284.01961	872.37981	-438.46497	310.54823	856.65623	-415.62930	33.55294	876.70812	-829.21632	2.03477	746.25099	-863.53523	53.91997	802.68686	-905.24237	184.24904	844.47101	-749.08998	212.37146	856.37742	-686.65697	237.09851	845.25707	-707.85492	-461.15566	652.66440	-466.85517	-476.54482	657.66493	-663.66701	-451.93255	651.41703	-474.99285	-453.89369	662.33986	-655.23552	
183	1.82000000	-48.92915	525.67802	-373.67598	-60.95591	387.94880	-364.99368	-307.31303	119.05736	-347.45124	-366.77738	85.95000	-410.67505	-196.72141	46.55725	-285.02672	-148.49653	64.40020	-332.38501	-90.82780	535.78775	-874.54758	-89.21627	344.52958	-865.74756	-293.04627	114.84565	-835.41921	-347.43719	77.71011	-762.62848	-186.35490	37.21675	-911.97238	-130.20463	63.82620	-864.95451	-123.58853	291.60352	-366.07749	-120.00129	423.48057	-336.35968	-184.85539	333.50728	-325.36651	-157.30867	386.38241	-903.87726	-215.76204	284.16217	-879.96272	-301.39985	659.84347	-369.92167	-192.08991	635.05611	-363.46478	-185.76962	567.14367	-351.56752	-329.77946	549.06859	-379.67977	-212.84431	521.30574	-372.54864	-324.33135	697.62721	-801.75709	-201.16473	659.08838	-840.49471	-368.14901	598.61187	-818.18756	-243.17931	561.55838	-867.56479	-351.78705	715.31279	-432.94849	-526.69027	801.99266	-514.54783	-371.79281	715.04412	-704.28292	-527.39797	807.63984	-605.97104	-143.97685	1124.84916	-576.79702	-64.91875	1050.58826	-433.15400	-90.85127	1079.04916	-731.52198	-77.95846	969.33406	-559.88810	-81.87178	968.64073	-606.50424	66.97744	878.81132	-337.48209	87.43808	721.82100	-305.65620	103.26452	783.46896	-246.76318	248.36279	859.51704	-388.12698	298.79176	888.77058	-447.20576	325.77148	874.12149	-425.49721	46.48121	878.42575	-824.96711	21.90882	746.20291	-858.12038	71.41315	804.92592	-899.80383	199.80001	852.01974	-743.35280	227.24818	865.25598	-680.85913	252.48716	854.65798	-701.44908	-459.24464	649.54921	-465.64726	-474.69593	654.90112	-662.44506	-450.11292	648.78692	-474.76071	-451.50065	659.85623	-653.98050	
